<svg width="157" height="48" viewBox="0 0 157 48" fill="none" xmlns="http://www.w3.org/2000/svg">
<g clip-path="url(#clip0_892_85275)">
<path d="M2.41406 20.3692C2.52804 19.7683 2.58891 19.1513 2.76376 18.5683C3.82298 15.0439 6.12643 12.7822 9.70572 11.8489C9.8931 11.8 9.97784 11.7086 10.0459 11.5338C11.4351 7.96704 14.0327 5.84202 17.8167 5.32882C20.9341 4.90573 23.6356 5.91304 25.8436 8.17232C25.9951 8.32748 26.13 8.36626 26.3353 8.32986C31.6213 7.40013 36.5826 10.9293 37.4103 16.2165C37.6234 17.5771 37.5416 18.9287 37.1352 20.2505C37.0606 20.4928 37.0827 20.6569 37.2546 20.8616C41.7803 26.2669 39.0466 34.5277 32.1959 36.1586C32.0265 36.1992 31.9352 36.2714 31.8683 36.4438C30.4791 40.0201 27.8761 42.0956 24.0879 42.6966C23.9226 42.7228 23.7567 42.7461 23.5908 42.7706H22.2189C22.173 42.755 22.1276 42.7294 22.0805 42.7252C19.6738 42.5032 17.6514 41.4995 15.9889 39.7516C15.9208 39.68 15.7627 39.6454 15.6589 39.6633C14.4821 39.8644 13.3047 39.8805 12.1327 39.6561C6.5167 38.5808 3.16775 32.8908 4.79807 27.6335C4.85118 27.4616 4.82373 27.3482 4.70557 27.211C3.7281 26.0819 3.05139 24.7923 2.70528 23.3393C2.58354 22.832 2.50954 22.3129 2.41406 21.7991C2.41406 21.3223 2.41406 20.846 2.41406 20.3692ZM18.836 29.4547C18.7172 29.3831 18.6175 29.3199 18.5149 29.2608C15.78 27.6842 13.0481 26.1028 10.3066 24.5375C9.74809 24.2183 9.4891 23.7916 9.49328 23.1399C9.51058 20.38 9.50044 17.62 9.50044 14.8595V14.4656C9.34708 14.5247 9.22653 14.5623 9.11375 14.616C6.49641 15.8626 5.01409 17.9297 4.90429 20.8216C4.79986 23.5857 6.0226 25.7358 8.4072 27.1584C10.7345 28.5465 13.0988 29.8725 15.4429 31.2318C15.5861 31.3148 15.6833 31.304 15.8176 31.2259C16.7605 30.6745 17.7075 30.1314 18.6528 29.5842C18.7112 29.5502 18.7638 29.5061 18.8366 29.4547H18.836ZM23.0663 18.5169C23.1785 18.5886 23.2579 18.6429 23.3402 18.6906C26.0996 20.2839 28.8548 21.8832 31.6213 23.4634C32.1852 23.7856 32.4287 24.2195 32.4251 24.8657C32.4096 27.6352 32.4185 30.4048 32.4185 33.1743C32.4185 33.2787 32.4185 33.3837 32.4185 33.5251C32.5701 33.4679 32.6817 33.4321 32.7885 33.3843C34.2708 32.7231 35.416 31.7021 36.1798 30.2579C37.9629 26.8857 36.8494 22.8171 33.5643 20.8717C31.2161 19.4807 28.8363 18.1434 26.4743 16.7756C26.3138 16.6825 26.201 16.6909 26.0453 16.7822C25.1722 17.2954 24.2926 17.7955 23.4154 18.3015C23.3074 18.3636 23.203 18.4322 23.0663 18.5169ZM23.4888 9.31569C23.3772 9.22677 23.302 9.16233 23.2227 9.10444C21.5565 7.89066 19.7054 7.45145 17.6729 7.79935C14.5197 8.33941 11.996 11.2515 11.9608 14.4441C11.9298 17.253 11.9495 20.0625 11.9584 22.8714C11.9584 22.9788 12.0497 23.131 12.1434 23.1865C13.0738 23.7385 14.013 24.2756 14.9511 24.8144C15.0126 24.8496 15.0842 24.8681 15.1755 24.9045C15.1755 24.7452 15.1755 24.6264 15.1755 24.5077C15.1755 21.3312 15.1809 18.1547 15.1707 14.9782C15.1689 14.3791 15.3993 13.9626 15.9226 13.669C17.0565 13.0328 18.1789 12.3764 19.3056 11.7271C20.6895 10.9299 22.0733 10.132 23.49 9.31569H23.4888ZM18.4546 38.6775C18.4815 38.7151 18.4946 38.7431 18.5161 38.7616C18.5841 38.8195 18.654 38.8756 18.7256 38.9287C20.0426 39.9038 21.5309 40.3495 23.16 40.3257C26.79 40.2732 29.9032 37.1808 29.9599 33.5192C30.0029 30.7306 29.9731 27.9402 29.9641 25.151C29.9641 25.043 29.8716 24.8908 29.7773 24.8347C28.8386 24.2779 27.8904 23.7361 26.9434 23.1919C26.8897 23.1608 26.8264 23.1459 26.747 23.1161C26.747 23.2647 26.747 23.3834 26.747 23.5022C26.747 26.659 26.7387 29.8158 26.7536 32.9726C26.7566 33.6224 26.5048 34.0545 25.942 34.3707C24.4705 35.1966 23.0138 36.0476 21.5512 36.8902C20.52 37.484 19.4894 38.0795 18.454 38.6769L18.4546 38.6775ZM17.257 19.4491C17.4133 19.3643 17.5171 19.3112 17.618 19.2527C20.3517 17.6767 23.089 16.1073 25.8149 14.5175C26.3836 14.1857 26.8903 14.1822 27.4596 14.5152C29.8579 15.9181 32.2687 17.2996 34.6754 18.6876C34.7584 18.7354 34.8461 18.7747 34.9356 18.8195C35.0979 18.2072 35.092 17.2232 34.9273 16.3233C34.3663 13.262 31.6863 10.8702 28.591 10.647C27.0979 10.539 25.7135 10.8601 24.4215 11.606C22.1103 12.9409 19.7973 14.2741 17.4891 15.6144C17.393 15.6705 17.2689 15.7898 17.2677 15.8811C17.2528 17.0513 17.2576 18.2216 17.2576 19.4491H17.257ZM6.97441 29.1677C6.95651 29.2363 6.94338 29.2721 6.93801 29.3085C6.67484 31.0827 7.0317 32.7303 8.01693 34.221C10.0578 37.3079 14.087 38.2759 17.3584 36.448C19.7412 35.1173 22.0924 33.7292 24.4603 32.3722C24.6113 32.2857 24.659 32.186 24.6584 32.0184C24.6519 30.9561 24.6554 29.8939 24.6548 28.8317C24.6548 28.7565 24.6465 28.6813 24.6399 28.5602C24.5122 28.6294 24.4185 28.6766 24.3278 28.7291C21.5774 30.317 18.8234 31.8996 16.0796 33.4995C15.5198 33.8259 15.0168 33.8205 14.46 33.4941C12.5689 32.383 10.6641 31.2945 8.76465 30.1977C8.17387 29.8563 7.58249 29.5168 6.97441 29.1671V29.1677ZM17.2564 23.9837C17.2564 24.6288 17.2486 25.2739 17.2641 25.919C17.2665 26.021 17.3453 26.1643 17.4324 26.2156C18.5346 26.8666 19.6457 27.5016 20.7497 28.1496C20.9007 28.2386 21.0081 28.2266 21.1537 28.1413C22.241 27.504 23.3319 26.8726 24.4263 26.2484C24.5844 26.1583 24.6447 26.0557 24.6441 25.8736C24.6369 24.6133 24.6459 23.353 24.6316 22.0927C24.6304 21.9757 24.5343 21.811 24.4335 21.7507C23.3408 21.1026 22.241 20.4677 21.1352 19.8423C21.0403 19.7886 20.8631 19.7832 20.77 19.8358C19.6553 20.4653 18.5471 21.1062 17.4455 21.7585C17.3518 21.814 17.2677 21.9685 17.2647 22.0789C17.2474 22.7139 17.2564 23.3488 17.2564 23.9843V23.9837Z" fill="#3C2D89"/>
<path d="M44.3438 25.3496C44.407 24.1919 44.4088 23.0264 44.5449 21.8777C45.0211 17.8658 47.8174 14.9632 51.8192 14.3002C53.9985 13.9392 56.1647 14.0054 58.2515 14.7937C61.1506 15.8893 62.8757 18.0263 63.5495 21.013C63.7315 21.8204 63.8258 22.6606 63.8425 23.4883C63.8741 25.0548 63.8998 26.629 63.7852 28.1901C63.5877 30.8773 62.5577 33.1837 60.3324 34.8373C59.0011 35.8267 57.4782 36.3405 55.8443 36.5332C54.0302 36.7475 52.2286 36.6848 50.4789 36.1179C47.2589 35.0754 45.3779 32.8286 44.6529 29.5626C44.3443 28.1722 44.4052 26.7609 44.3438 25.3496ZM48.5019 25.3633C48.5168 25.3639 48.5317 25.3645 48.5466 25.3651C48.5466 25.9607 48.5174 26.558 48.5544 27.1518C48.598 27.8625 48.6332 28.5846 48.7859 29.2762C49.1917 31.1124 50.2187 32.4622 52.0501 33.0936C53.0437 33.4361 54.0719 33.5059 55.1097 33.3526C57.0402 33.0673 58.4342 32.0731 59.1783 30.2387C59.5369 29.3538 59.6891 28.427 59.6945 27.477C59.7022 26.0973 59.7148 24.717 59.6885 23.3373C59.6772 22.7555 59.6211 22.1647 59.4999 21.5966C59.0763 19.6154 57.9836 18.1928 55.9791 17.5931C55.093 17.3281 54.1841 17.2672 53.2651 17.3884C51.4844 17.6229 50.0737 18.4363 49.2872 20.091C48.9811 20.7343 48.7615 21.4516 48.672 22.157C48.5371 23.2156 48.552 24.2939 48.5025 25.3633H48.5019Z" fill="#3C2D89"/>
<path d="M139.508 36.2197C138.084 36.2197 136.703 36.2238 135.322 36.2095C135.24 36.2089 135.117 36.08 135.086 35.9869C134.626 34.6043 134.179 33.2174 133.73 31.8312C133.702 31.747 133.673 31.6641 133.64 31.568H133.336C130.722 31.568 128.107 31.5722 125.493 31.5614C125.247 31.5603 125.154 31.6378 125.083 31.864C124.658 33.227 124.212 34.5828 123.787 35.9452C123.722 36.154 123.63 36.2173 123.414 36.2155C122.073 36.2053 120.731 36.2101 119.344 36.2101C119.386 36.0878 119.417 35.9899 119.452 35.8932C121.966 28.8749 124.481 21.8571 126.99 14.8376C127.063 14.6335 127.151 14.5434 127.387 14.547C128.738 14.5667 130.09 14.575 131.442 14.5655C131.694 14.5637 131.78 14.6604 131.856 14.8746C133.723 20.092 135.596 25.3075 137.468 30.5231C138.111 32.3145 138.753 34.1066 139.395 35.898C139.428 35.9905 139.461 36.083 139.509 36.2197H139.508ZM132.658 28.5037C131.579 25.1017 130.512 21.7366 129.444 18.3715C129.422 18.3727 129.4 18.3733 129.378 18.3745C128.302 21.742 127.226 25.11 126.141 28.5037H132.658Z" fill="#3C2D89"/>
<path d="M67.0312 20.2551H70.8283V22.3634C70.8868 22.3324 70.9191 22.3264 70.931 22.3073C71.8231 20.8668 73.1694 20.1405 74.8039 19.9299C76.2235 19.7467 77.6259 19.8678 78.9447 20.4753C80.9343 21.3925 82.0096 23.0252 82.456 25.1073C82.5795 25.6849 82.632 26.287 82.6374 26.879C82.6481 28.1387 82.6678 29.4038 82.5753 30.6588C82.3271 34.0239 79.6912 36.4843 76.3148 36.5821C75.2401 36.6132 74.191 36.5159 73.1939 36.0844C72.3143 35.7043 71.5993 35.1267 71.045 34.3127V41.6801H67.0318V20.2551H67.0312ZM78.644 28.4675C78.5998 27.5163 78.6177 26.8163 78.5246 26.1313C78.3474 24.8244 77.7226 23.7914 76.4772 23.2269C74.163 22.179 71.5683 23.5128 71.1518 26.0197C70.9954 26.9602 71.0426 27.9376 71.033 28.8984C71.0277 29.4217 71.0492 29.9546 71.1411 30.4684C71.4597 32.2575 72.8883 33.4934 74.6493 33.5477C76.5488 33.6067 78.04 32.5409 78.4357 30.7262C78.6135 29.9117 78.595 29.0542 78.6446 28.4675H78.644Z" fill="#3C2D89"/>
<path d="M96.5936 31.5927C97.4995 32.1148 98.3833 32.625 99.2861 33.1454C98.6148 34.3013 97.7179 35.1976 96.5274 35.7884C95.4294 36.3332 94.2532 36.5361 93.04 36.5719C91.7218 36.6107 90.4155 36.5379 89.1641 36.0737C86.8798 35.2263 85.447 33.6025 85.046 31.2102C84.6957 29.1198 84.6563 26.9906 85.1522 24.9121C85.814 22.1378 87.9539 20.2992 90.7885 19.9585C92.3269 19.7735 93.8635 19.7448 95.356 20.2539C97.7788 21.0798 99.2324 22.7883 99.6203 25.2874C99.8298 26.6397 99.7701 28.0337 99.834 29.4521H89.0776C88.8108 31.9955 90.0443 33.9785 92.8449 33.9188C94.3039 33.8878 95.3751 33.1502 96.2469 32.0522C96.3573 31.9125 96.4617 31.7681 96.5942 31.5927H96.5936ZM89.0346 26.8551H95.8501C95.8226 26.3723 95.8292 25.914 95.7647 25.4653C95.572 24.1297 94.9233 23.126 93.5973 22.6594C91.8596 22.0477 90.0539 22.8127 89.3849 24.4442C89.0704 25.2111 89.0018 26.0161 89.0352 26.8551H89.0346Z" fill="#3C2D89"/>
<path d="M102.438 20.2517H106.245V22.3839C106.278 22.4054 106.311 22.4275 106.344 22.449C106.352 22.4084 106.35 22.3642 106.368 22.3284C107.038 20.938 108.208 20.238 109.678 19.9814C110.835 19.7797 111.999 19.7642 113.137 20.0858C115.118 20.6468 116.261 22.0133 116.697 23.9772C116.844 24.6396 116.907 25.333 116.912 26.0127C116.933 29.299 116.921 32.5847 116.921 35.871C116.921 35.9677 116.91 36.0643 116.904 36.1783H112.891C112.891 36.0578 112.891 35.9432 112.891 35.828C112.891 32.8001 112.897 29.7722 112.885 26.7437C112.883 26.2908 112.845 25.8265 112.739 25.3885C112.395 23.9778 111.432 23.2074 109.862 23.1418C108.395 23.0809 107.025 23.7302 106.598 25.4661C106.49 25.9041 106.454 26.369 106.452 26.8213C106.44 29.8194 106.446 32.818 106.446 35.8161V36.1807H102.438V20.2517H102.438Z" fill="#3C2D89"/>
<path d="M146.451 17.5959H141.828V14.5781H155.095V17.6018H150.467V33.1155H155.091V36.1571H141.829V33.1441H146.451V17.5959Z" fill="#3C2D89"/>
</g>
<defs>
<clipPath id="clip0_892_85275">
<rect width="152.686" height="37.5366" fill="white" transform="translate(2.41406 5.23438)"/>
</clipPath>
</defs>
</svg>
