<?xml version="1.0" encoding="utf-8"?>
<!-- Generator: Adobe Illustrator 13.0.0, SVG Export Plug-In . SVG Version: 6.00 Build 14948)  -->
<!DOCTYPE svg PUBLIC "-//W3C//DTD SVG 1.1//EN" "http://www.w3.org/Graphics/SVG/1.1/DTD/svg11.dtd">
<svg version="1.1" id="Layer_1" xmlns="http://www.w3.org/2000/svg" xmlns:xlink="http://www.w3.org/1999/xlink" x="0px" y="0px"
	 width="577.471px" height="545.973px" viewBox="0 0 577.471 545.973" enable-background="new 0 0 577.471 545.973"
	 xml:space="preserve">
<path fill="#7C4DFF" d="M480.364,268.684l-32.6-32.6l-53.481-96.683l6.641-64.609l-47.232,34.353l-173.077,14.648
	c-24.779,47.647-49.569,95.289-74.355,142.932h-19.83c-0.012-0.072-0.026-0.145-0.038-0.217l-7.311-0.071
	c7.732,48.955,30.922,92.772,64.429,126.278c41.558,41.558,98.971,67.263,162.385,67.263c5.067,0,10.092-0.182,15.077-0.506
	l-2.516-7.055c-0.134,0.008-0.27,0.01-0.403,0.018l-36.439-103.332l31.487-109.7l37.274,57.873l62.925,28.75l23.163,23.163
	l48.542-30.191L480.364,268.684z M471.626,270.127l-4.543,3.895l-42.231-19.311l19.474-11.884L471.626,270.127z M414.814,318.831
	l-8.166-3.731l3.609-51.482l7.205-4.396l43.62,19.946L414.814,318.831z M171.595,331.85l-38.526,38.525
	c-11.49-14.165-21.272-29.768-29.036-46.502l50.557-7.289L171.595,331.85z M161.598,313.214l65.646-43.508l33.426,72.881
	l-82.216-14.24L161.598,313.214z M156.075,308.256l-39.859-35.782l103.107-20.04l4.89,10.663L156.075,308.256z M118.532,264.703
	l-3.461,0.672l51.373-98.752l-6.033,76.038L118.532,264.703z M142.984,259.95L330.6,161.201l-21.531,66.469L142.984,259.95z
	 M387.281,137.292l-11.88,3.034l15.175-35.095L387.281,137.292z M366.623,142.567l-23.605,6.028l14.869-33.613l30.144-21.923
	L366.623,142.567z M334.988,148.974l-0.366-0.188l-0.342,1.054l-14.703-2.552l-30.378-25.463l60.047-5.083L334.988,148.974z
	 M305.466,144.838l-94.462-16.396l68.031-5.758L305.466,144.838z M325.72,155.651l-117.753,61.979l47.658-74.145L325.72,155.651z
	 M338.844,159.042l33.872,17.457l-50.714,34.533L338.844,159.042z M379.982,180.244l16.429,8.468l-6.53,54.35l-54.237-32.625
	L379.982,180.244z M402.73,268.21l-3.063,43.699L360.467,294L402.73,268.21z M440.065,237.014l-45.553,27.798l8.722-72.584
	l16.865,8.692L440.065,237.014z M413.848,189.619l-67.055-34.56l42.003-10.727L413.848,189.619z M184.87,131.203l63.071,10.948
	l-52.882,82.273l-27.118,14.273l7.018-88.442L184.87,131.203z M107.071,273.924l40.549,36.402l-46.622,6.723
	c-5.813-13.724-10.279-28.156-13.254-43.125H107.071z M137.71,375.915l39.25-39.249l13.55,12.164l8.067,76.381
	c-18.406-10.157-35.227-22.835-49.978-37.587C144.831,383.854,141.202,379.946,137.71,375.915z M307.538,444.227l-48.128-43.206
	l36.027,8.891L307.538,444.227z M265.314,415.984l-36.523,23.06c-7.736-2.858-15.265-6.141-22.568-9.808l-7.736-73.245
	L265.314,415.984z M237.488,442.043l33.378-21.076l35.427,31.804c-0.133,0-0.266,0.006-0.399,0.006
	C282.025,452.777,259.041,449.002,237.488,442.043z M292.579,401.809l-44.535-10.99l-59.518-53.431l86.626,15.004L292.579,401.809z
	 M275.273,345.116l-6.029-1.044l-42.675-93.046l80.185-15.585L275.273,345.116z M315.769,230.277l2.621-8.092l10.722-7.301
	l59.83,35.99l-2.248,18.709l-32.741,19.98L315.769,230.277z M420.699,323.244l7.755-6.648l31.644,9.428l-22.576,14.042
	L420.699,323.244z M468.251,320.952l-33.303-9.924l39.032-33.46l3.474,37.66L468.251,320.952z"/>
</svg>
