<?xml version="1.0" encoding="utf-8"?>
<!-- Generator: Adobe Illustrator 13.0.0, SVG Export Plug-In . SVG Version: 6.00 Build 14948)  -->
<!DOCTYPE svg PUBLIC "-//W3C//DTD SVG 1.1//EN" "http://www.w3.org/Graphics/SVG/1.1/DTD/svg11.dtd">
<svg version="1.1" id="Layer_1" xmlns="http://www.w3.org/2000/svg" xmlns:xlink="http://www.w3.org/1999/xlink" x="0px" y="0px"
	 width="893.955px" height="565.472px" viewBox="0 0 893.955 565.472" enable-background="new 0 0 893.955 565.472"
	 xml:space="preserve">
<path fill="#7C4DFF" d="M353.473,274.806V241.55l-54.09,19.197L353.473,274.806z M409.111,247.129l42.688,30.135l24.969-21.933
	L409.111,247.129z M448.4,280.25l-48.506-34.237l-42.01-5.095v35.819l44.199,44.201L448.4,280.25z M513.148,337.121l50.484-41.703
	l-43.758-49.485l-35.11,9.321L513.148,337.121z M565.394,349.735l26.584-22.261l-25.426-28.757l-49.512,40.901L565.394,349.735z
	 M295.381,321.282l28.551-3.825l28.07-38.491l-35.912-9.336L295.381,321.282z M640.161,140.573
	c-0.008-14.294-0.071-22.025,0.348-29.407l-24.729,12.729l-11.508,23.14L640.161,140.573z M545.364,187.846l-21.046,52.313
	c11.424-3.025,22.852-6.045,34.273-9.057l24.191-10.407l14.29-66.011L545.364,187.846z M487.521,195.681l-3.231,55.139
	c11.567-3.099,23.144-6.182,34.725-9.252l21.139-52.546L487.521,195.681z M187.305,325.29l-21.818,8.487l-0.096,0.13l-50.48,12.576
	l63.996,2.006L187.305,325.29z M194.734,317.684l26.91-10.473l29.289-31.908h-41.297l-1.174,1.554l0.932,0.335L194.734,317.684z
	 M170.527,327.102l18.764-7.3l12.211-33.726L170.527,327.102z M182.504,351.471l9.314,9.313l26.24-47.46l-25.311,9.849
	L182.504,351.471z M188.686,363.892l-11.045-11.043l-69.428-2.175l52.539,28.401L188.686,363.892z M687.02,474.634h-18.827
	l4.767,22.433h25.256v-6.779L687.02,474.634z M506.271,490.311l-7.664-15.477l-14.4-0.104l-2.77,22.555h24.834V490.311z
	 M217.656,490.311l-7.652-15.458h-12.496l-3.037,22.433h23.186V490.311z M398.063,474.634H380.84l4.035,22.871h26.078v-7.131
	L398.063,474.634z M216.383,399.151l-17.971,71.29h11.576l18.188-37.718L216.383,399.151z M278.039,227.71l-19.002,42.684
	l30.07-10.67L278.039,227.71z M660.537,75.539l-11.962,6.051l-3.802,24.986l21.152,12.043l5.136-7.381L660.537,75.539z
	 M686.785,88.643L665.523,76.9l8.76,29.708L686.785,88.643z M663.488,70.749l16.288,8.994L667.798,66.29l-13.203-10.581
	L663.488,70.749z M648.771,76.755c3.17-1.707,6.51-3.456,10.044-5.265l-10.044-16.979V76.755z M254.012,270.891
	c6.326-14.146,12.633-28.307,18.916-42.472l-57.68,42.472H254.012z M609.438,304.038l-37.035-5.336l22.541,25.494L609.438,304.038z
	 M611.132,255.868l-51.94-20.371l-34.566,9.177l43.271,48.931l43.236,6.229V255.868z M628.946,205.631l-63.832,27.462l46.911,18.399
	C620.407,227.875,624.407,216.168,628.946,205.631z M652.505,160.703l-11.13-15.885l-39.183,7.053l-14.436,66.686l43.379-18.663
	l0.188,0.437C635.86,190.588,641.591,180.278,652.505,160.703z M670.666,160.808l-6.084-37.893l-20.009-11.394v30.208l11.779,16.817
	C661.123,159.297,665.898,160.042,670.666,160.808z M701.153,173.263l11.26-23.11l-42.928-24.445l5.812,36.22
	C683.927,165.666,692.54,169.476,701.153,173.263z M693.94,98.375l-1.478-2.364l-2.573-4.117l-20.121,28.916l59.294,33.763
	L693.94,98.375z M632.88,89.528l-13.787,27.714l21.793-11.218c0.517-5.773,1.39-12.18,2.861-21.993L632.88,89.528z M493.918,190.442
	l48.112-6.09l15.983-39.729C536.94,159.896,515.751,175.029,493.918,190.442z M416.843,200.272l-13.229,41.751l76.24,9.241
	l3.235-55.178C461.009,197.454,438.92,198.843,416.843,200.272z M339.461,190.605l17.785,45.797l41.914,5.081l13.141-41.471
	L339.461,190.605z M280.961,222.727l12.285,35.526l59.563-21.141l-17.848-45.953L280.961,222.727z M260.756,325.921l29.619-3.969
	l21.424-53.438l-19.805-5.146l-34.736,12.329L260.756,325.921z M244.367,395.767l10.311-57.287
	c-11.943,17.923-23.939,35.529-36.201,53.369l12.299,35.01L244.367,395.767z M318.871,322.569l-58.273,7.809l-10.734,59.657
	C272.863,367.545,295.859,345.05,318.871,322.569z M344.758,329.662l52.232-7.58l-41.057-41.059l-27.645,37.911L344.758,329.662z
	 M458.456,334.39l-8.048-50.056l-43.264,38.004L458.456,334.39z M508.946,338.405c-9.33-26.959-18.681-53.911-28.036-80.866
	l-26.602,23.37l8.73,54.3L508.946,338.405z M385.553,447.337l-51.4-38.721l23.26,34.884l21.842,26.722h16.473L385.553,447.337z
	 M327.809,398.323l54.086,40.743l-13.291-30.362L337.6,372.325C335.586,378.444,332.736,385.733,327.809,398.323z M570.094,351.541
	l71.448,32.047l-46.647-52.813L570.094,351.541z M671.841,442.405l-30.65-20.081l25.595,47.897h17.916L671.841,442.405z
	 M636.556,414.022l31.791,20.828l-20.082-43.431l-70.796-31.753C597.177,377.771,616.876,395.888,636.556,414.022z M347.699,333.688
	l22.818,42.159l27.855-49.517L347.699,333.688z M368.275,380.951l-23.018-42.528c-2.834,14.717-4.115,21.818-6.129,28.918
	l29.146,34.199V380.951z M512.156,445.834l-15.082-23.242c-3.86,15.465-7.929,31.177-12.015,47.753l13.623,0.097L512.156,445.834z
	 M498.524,416.751l13.482,20.779l-5.153-56.531C504.276,393.004,501.469,404.828,498.524,416.751z M556.523,364.82l-42.784,43.3
	l2.723,29.854L556.523,364.82z M513.217,402.39l48.369-48.957l-47.66-9.971c-1.35,8.45-2.839,16.689-4.443,24.805l0.618-0.056
	L513.217,402.39z M705.429,174.548l25.158,5.184l2.565-17.771l-16.904-9.624L705.429,174.548z M725.111,183.089l-19.101-3.933
	l4.635,10.112L725.111,183.089z M554.703,142.388l-26.676-5.667l-33.621,48.019L554.703,142.388z M568.325,105.486l20.088,11.439
	c12.367-9.48,22.565-17.148,34.037-24.629L568.325,105.486z M584.63,119.833l-22.531-12.83l-0.448,0.108l-29.812,25.918
	l27.748,5.896C569.177,131.717,577.313,125.454,584.63,119.833z M594.371,118.056l18.462,1.872l12.295-24.714
	C614.793,102.944,604.562,110.543,594.371,118.056z M610.738,124.136l-21.646-2.193c-8.343,6.133-16.665,12.215-24.998,18.271
	l0.373,0.148l-16.27,40.439l50.444-32.348L610.738,124.136z M597.931,327.573l53.854,60.979
	c12.834,27.553,25.537,55.186,38.28,82.781l12.561,17.565v12.579h-33.234l-6.012-28.305l-29.947-56.043l-66.868-61.501
	l-49.389,90.189l0.017,0.167l-0.113,0.012l-14.622,26.699l8.226,16.609v12.392h-34.23c5.858-47.671,17.436-85.571,29.289-133.671
	l3.832-25.163c-54.265-3.778-50.524-3.81-105.978-16.834l-30.908,54.94v26.102l14.426,32.969l13.867,31.205l14.385,17.564v13.107
	h-34.188l-5.035-28.546c-22.641-27.823-32.189-42.214-53.459-74.031l12.34-31.531l6.793-34.817l-16.387-10.676l-77.104,75.368
	c-11.338,25.945-22.197,49.414-34.508,74.95l8.25,16.672v12.392h-32.635c5.518-40.719,14.123-69.342,24.559-111.084l24.658-35.859
	l17.824-26.932l-3.369-48.379l-28.379,30.92l-30.779,55.672c-11.074,5.995-22.137,12.022-33.197,18.044
	c-22.58-12.251-45.203-24.439-67.807-36.658l69.865-17.405l44.164-58.496l69.553-51.216l0.053-0.12
	c19.686-11.484,39.338-23.026,59.025-34.507l79.644,10.286l68.995-4.359l41.187-58.826l34.142-29.684l71.14-17.333l0.279,1.153
	c4.17-2.538,8.582-5.103,13.37-7.752V41.875c19.531,15.643,33.03,25.584,46.426,43.948l0.262,0.144l-0.065,0.123l0.592,0.821
	l0.282-0.177l45.982,73.576l-3.399,23.58l-26,11.105l-7.879-17.189l-27.865-12.216l-16.43-2.606l-22.24,39.829l-18.48,51.921v48.339
	L597.931,327.573z"/>
</svg>
