<?xml version="1.0" encoding="utf-8"?>
<!-- Generator: Adobe Illustrator 13.0.0, SVG Export Plug-In . SVG Version: 6.00 Build 14948)  -->
<!DOCTYPE svg PUBLIC "-//W3C//DTD SVG 1.1//EN" "http://www.w3.org/Graphics/SVG/1.1/DTD/svg11.dtd">
<svg version="1.1" xmlns="http://www.w3.org/2000/svg" xmlns:xlink="http://www.w3.org/1999/xlink" x="0px" y="0px" width="1198px"
	 height="1124px" viewBox="0 0 1198 1124" enable-background="new 0 0 1198 1124" xml:space="preserve">
<g id="Background">
</g>
<g id="Golden">
</g>
<g id="Silver">
	<radialGradient id="SVGID_1_" cx="564.9316" cy="551.79" r="280.0729" gradientUnits="userSpaceOnUse">
		<stop  offset="0" style="stop-color:#6D6E71"/>
		<stop  offset="0.3212" style="stop-color:#BDBFC2"/>
		<stop  offset="0.5333" style="stop-color:#FDFDFF"/>
		<stop  offset="0.5402" style="stop-color:#FBFBFD"/>
		<stop  offset="0.5758" style="stop-color:#F7F7F9"/>
		<stop  offset="0.7273" style="stop-color:#B6B8BD"/>
		<stop  offset="0.7705" style="stop-color:#A3A5A9"/>
		<stop  offset="0.8285" style="stop-color:#8F9195"/>
		<stop  offset="0.8866" style="stop-color:#848689"/>
		<stop  offset="0.9448" style="stop-color:#808285"/>
		<stop  offset="1" style="stop-color:#A2A4A8"/>
	</radialGradient>
	<path fill="url(#SVGID_1_)" d="M503.012,554.701v-33.256l-54.09,19.197L503.012,554.701z M558.65,527.023l42.688,30.136
		l24.969-21.933L558.65,527.023z M597.939,560.145l-48.507-34.236l-42.01-5.096v35.819l44.199,44.201L597.939,560.145z
		 M662.688,617.016l50.483-41.703l-43.758-49.484l-35.11,9.32L662.688,617.016z M714.933,629.63l26.584-22.261l-25.426-28.758
		l-49.512,40.902L714.933,629.63z M444.92,601.178l28.551-3.826l28.07-38.49l-35.912-9.336L444.92,601.178z M789.7,420.469
		c-0.008-14.295-0.071-22.025,0.348-29.408l-24.729,12.729l-11.508,23.14L789.7,420.469z M694.903,467.741l-21.046,52.313
		c11.424-3.025,22.852-6.045,34.272-9.058l24.191-10.407l14.29-66.011L694.903,467.741z M637.061,475.576l-3.231,55.139
		c11.567-3.099,23.144-6.182,34.725-9.252l21.14-52.546L637.061,475.576z M336.845,605.186l-21.818,8.486l-0.096,0.131
		l-50.48,12.575l63.996,2.007L336.845,605.186z M344.272,597.579l26.91-10.474l29.289-31.907h-41.297l-1.174,1.554l0.932,0.335
		L344.272,597.579z M320.065,606.997l18.765-7.3l12.211-33.727L320.065,606.997z M332.043,631.366l9.313,9.313l26.24-47.461
		l-25.311,9.85L332.043,631.366z M338.226,643.787l-11.045-11.043l-69.429-2.176l52.539,28.402L338.226,643.787z M836.559,754.529
		h-18.826l4.767,22.434h25.256v-6.779L836.559,754.529z M655.811,770.205l-7.664-15.477l-14.4-0.104l-2.77,22.555h24.834V770.205z
		 M367.195,770.205l-7.652-15.457h-12.496l-3.036,22.434h23.186L367.195,770.205L367.195,770.205z M547.602,754.529h-17.223
		l4.035,22.871h26.078v-7.131L547.602,754.529z M365.922,679.047l-17.971,71.289h11.575l18.188-37.719L365.922,679.047z
		 M427.578,507.605l-19.002,42.684l30.069-10.67L427.578,507.605z M810.076,355.434l-11.962,6.051l-3.802,24.986l21.151,12.043
		l5.136-7.381L810.076,355.434z M836.324,368.538l-21.262-11.743l8.76,29.708L836.324,368.538z M813.027,350.645l16.288,8.994
		l-11.979-13.453l-13.203-10.582L813.027,350.645z M798.311,356.65c3.17-1.707,6.51-3.457,10.044-5.266l-10.044-16.979V356.65z
		 M403.552,550.786c6.325-14.146,12.633-28.308,18.915-42.472l-57.68,42.472H403.552z M758.977,583.934l-37.034-5.336l22.541,25.493
		L758.977,583.934z M760.671,535.764l-51.939-20.371l-34.566,9.176l43.271,48.932l43.235,6.229L760.671,535.764L760.671,535.764z
		 M778.485,485.525l-63.832,27.463l46.911,18.398C769.946,507.77,773.946,496.063,778.485,485.525z M802.044,440.598l-11.13-15.885
		l-39.183,7.053l-14.437,66.687l43.379-18.663l0.188,0.438C785.399,470.482,791.13,460.173,802.044,440.598z M820.205,440.703
		l-6.084-37.893l-20.009-11.395v30.208l11.778,16.817C810.662,439.191,815.438,439.938,820.205,440.703z M850.692,453.158
		l11.26-23.11l-42.928-24.444l5.812,36.219C833.466,445.561,842.079,449.371,850.692,453.158z M843.479,378.27l-1.479-2.363
		l-2.573-4.117l-20.121,28.916l59.295,33.764L843.479,378.27z M782.419,369.423l-13.787,27.714l21.793-11.218
		c0.518-5.772,1.391-12.181,2.861-21.993L782.419,369.423z M643.457,470.337l48.112-6.09l15.982-39.729
		C686.479,439.791,665.29,454.924,643.457,470.337z M566.382,480.167l-13.229,41.751l76.239,9.241l3.235-55.179
		C610.548,477.35,588.459,478.738,566.382,480.167z M489,470.5l17.785,45.797l41.914,5.081l13.141-41.471L489,470.5z M430.5,502.622
		l12.285,35.526l59.563-21.142L484.5,471.055L430.5,502.622z M410.295,605.816l29.619-3.969l21.424-53.438l-19.805-5.146
		l-34.736,12.328L410.295,605.816z M393.906,675.662l10.312-57.287c-11.943,17.923-23.939,35.529-36.201,53.369l12.299,35.01
		L393.906,675.662z M468.41,602.464l-58.272,7.81l-10.734,59.656C422.401,647.439,445.397,624.945,468.41,602.464z M494.297,609.557
		l52.232-7.58l-41.058-41.059l-27.645,37.911L494.297,609.557z M607.995,614.285l-8.048-50.057l-43.265,38.004L607.995,614.285z
		 M658.485,618.3c-9.33-26.959-18.682-53.911-28.036-80.866l-26.603,23.371l8.73,54.299L658.485,618.3z M535.092,727.232
		l-51.399-38.721l23.26,34.883l21.842,26.723h16.474L535.092,727.232z M477.348,678.219l54.086,40.742L518.143,688.6l-31.004-36.379
		C485.125,658.339,482.275,665.628,477.348,678.219z M719.633,631.436l71.448,32.047l-46.647-52.813L719.633,631.436z
		 M821.38,722.301l-30.649-20.082l25.595,47.896h17.916L821.38,722.301z M786.095,693.918l31.791,20.826l-20.082-43.43
		l-70.796-31.754C746.716,657.666,766.415,675.783,786.095,693.918z M497.238,613.583l22.817,42.159l27.855-49.518L497.238,613.583z
		 M517.814,660.846l-23.019-42.527c-2.834,14.717-4.115,21.818-6.129,28.918l29.146,34.199L517.814,660.846L517.814,660.846z
		 M661.695,725.729l-15.082-23.242c-3.86,15.465-7.93,31.178-12.016,47.754l13.623,0.098L661.695,725.729z M648.063,696.646
		l13.481,20.779l-5.153-56.531C653.815,672.898,651.008,684.723,648.063,696.646z M706.063,644.715l-42.784,43.301l2.723,29.854
		L706.063,644.715z M662.756,682.285l48.369-48.957l-47.66-9.971c-1.35,8.449-2.839,16.688-4.442,24.805l0.618-0.057
		L662.756,682.285z M854.968,454.443l25.158,5.184l2.565-17.771l-16.904-9.623L854.968,454.443z M874.65,462.984l-19.102-3.934
		l4.635,10.112L874.65,462.984z M704.242,422.283l-26.676-5.667l-33.621,48.019L704.242,422.283z M717.864,385.381l20.088,11.439
		c12.367-9.48,22.565-17.148,34.037-24.629L717.864,385.381z M734.169,399.729l-22.531-12.83l-0.447,0.107l-29.813,25.918
		l27.748,5.896C718.716,411.611,726.852,405.35,734.169,399.729z M743.91,397.951l18.462,1.871l12.295-24.713
		C764.332,382.839,754.102,390.438,743.91,397.951z M760.277,404.031l-21.646-2.193c-8.343,6.133-16.665,12.215-24.998,18.271
		l0.373,0.147l-16.27,40.438l50.443-32.348L760.277,404.031z M747.47,607.469l53.854,60.979
		c12.834,27.553,25.537,55.186,38.28,82.781l12.561,17.564v12.578h-33.234l-6.012-28.305l-29.947-56.043l-66.867-61.5l-49.39,90.189
		l0.018,0.166l-0.113,0.012l-14.622,26.699l8.226,16.609v12.393h-34.229c5.858-47.672,17.436-85.572,29.289-133.672l3.832-25.163
		c-54.265-3.778-50.524-3.81-105.979-16.834l-30.907,54.94v26.102l14.426,32.969l13.867,31.205l14.385,17.564v13.107h-34.188
		l-5.034-28.547c-22.642-27.822-32.189-42.213-53.459-74.031l12.34-31.53l6.793-34.817l-16.388-10.676l-77.104,75.367
		c-11.338,25.945-22.197,49.414-34.508,74.951l8.25,16.672v12.393h-32.635c5.518-40.721,14.123-69.344,24.559-111.085l24.658-35.858
		l17.824-26.933l-3.369-48.379l-28.379,30.92l-30.779,55.673c-11.074,5.994-22.137,12.021-33.197,18.043
		c-22.58-12.25-45.203-24.438-67.807-36.658l69.865-17.404l44.164-58.496l69.553-51.216l0.053-0.12
		c19.686-11.484,39.338-23.025,59.025-34.508l79.644,10.287l68.995-4.359l41.187-58.826l34.143-29.684l71.14-17.334l0.279,1.154
		c4.17-2.539,8.582-5.104,13.37-7.752V321.77c19.531,15.644,33.029,25.584,46.426,43.949l0.262,0.143l-0.064,0.123l0.592,0.822
		l0.282-0.178l45.981,73.576l-3.398,23.58l-26,11.105l-7.879-17.189l-27.865-12.217l-16.43-2.605l-22.24,39.829l-18.48,51.921v48.34
		L747.47,607.469z"/>
	<linearGradient id="SVGID_2_" gradientUnits="userSpaceOnUse" x1="241.1895" y1="549.9736" x2="886.085" y2="549.9736">
		<stop  offset="0" style="stop-color:#6D6E71"/>
		<stop  offset="0.3212" style="stop-color:#BDBFC2"/>
		<stop  offset="0.5333" style="stop-color:#FDFDFF"/>
		<stop  offset="0.5402" style="stop-color:#FBFBFD"/>
		<stop  offset="0.5758" style="stop-color:#F7F7F9"/>
		<stop  offset="0.7273" style="stop-color:#B6B8BD"/>
		<stop  offset="0.7705" style="stop-color:#A3A5A9"/>
		<stop  offset="0.8285" style="stop-color:#8F9195"/>
		<stop  offset="0.8866" style="stop-color:#848689"/>
		<stop  offset="0.9448" style="stop-color:#808285"/>
		<stop  offset="1" style="stop-color:#A2A4A8"/>
	</linearGradient>
	<path fill="url(#SVGID_2_)" d="M501.718,552.885v-33.256l-54.09,19.197L501.718,552.885z M557.356,525.207l42.688,30.136
		l24.969-21.933L557.356,525.207z M596.646,558.328l-48.507-34.236l-42.01-5.096v35.819l44.199,44.201L596.646,558.328z
		 M661.394,615.199l50.483-41.703l-43.758-49.484l-35.11,9.32L661.394,615.199z M713.639,627.813l26.584-22.261l-25.426-28.758
		l-49.512,40.902L713.639,627.813z M443.626,599.361l28.551-3.826l28.07-38.49l-35.912-9.336L443.626,599.361z M788.406,418.652
		c-0.008-14.295-0.071-22.025,0.348-29.408l-24.729,12.729l-11.508,23.14L788.406,418.652z M693.609,465.925l-21.046,52.313
		c11.424-3.025,22.852-6.045,34.272-9.058l24.191-10.407l14.29-66.011L693.609,465.925z M635.767,473.76l-3.231,55.139
		c11.567-3.099,23.144-6.182,34.725-9.252l21.14-52.546L635.767,473.76z M335.551,603.369l-21.818,8.486l-0.096,0.131l-50.48,12.575
		l63.996,2.007L335.551,603.369z M342.979,595.763l26.91-10.474l29.289-31.907h-41.297l-1.174,1.554l0.932,0.335L342.979,595.763z
		 M318.771,605.181l18.765-7.3l12.211-33.727L318.771,605.181z M330.749,629.55l9.313,9.313l26.24-47.461l-25.311,9.85
		L330.749,629.55z M336.932,641.971l-11.045-11.043l-69.429-2.176l52.539,28.402L336.932,641.971z M835.265,752.713h-18.826
		l4.767,22.434h25.256v-6.779L835.265,752.713z M654.517,768.389l-7.664-15.477l-14.4-0.104l-2.77,22.555h24.834V768.389z
		 M365.901,768.389l-7.652-15.457h-12.496l-3.036,22.434h23.186L365.901,768.389L365.901,768.389z M546.308,752.713h-17.223
		l4.035,22.871h26.078v-7.131L546.308,752.713z M364.628,677.23l-17.971,71.289h11.575l18.188-37.719L364.628,677.23z
		 M426.284,505.789l-19.002,42.684l30.069-10.67L426.284,505.789z M808.782,353.617l-11.962,6.051l-3.802,24.986l21.151,12.043
		l5.136-7.381L808.782,353.617z M835.03,366.722l-21.262-11.743l8.76,29.708L835.03,366.722z M811.733,348.828l16.288,8.994
		l-11.979-13.453l-13.203-10.582L811.733,348.828z M797.017,354.834c3.17-1.707,6.51-3.457,10.044-5.266l-10.044-16.979V354.834z
		 M402.258,548.97c6.325-14.146,12.633-28.308,18.915-42.472l-57.68,42.472H402.258z M757.683,582.117l-37.034-5.336l22.541,25.493
		L757.683,582.117z M759.377,533.947l-51.939-20.371l-34.566,9.176l43.271,48.932l43.235,6.229L759.377,533.947L759.377,533.947z
		 M777.191,483.709l-63.832,27.463l46.911,18.398C768.652,505.953,772.652,494.246,777.191,483.709z M800.75,438.781l-11.13-15.885
		l-39.183,7.053l-14.437,66.687l43.379-18.663l0.188,0.438C784.105,468.666,789.836,458.356,800.75,438.781z M818.911,438.887
		l-6.084-37.893L792.818,389.6v30.208l11.778,16.817C809.368,437.375,814.144,438.121,818.911,438.887z M849.398,451.342
		l11.26-23.11l-42.928-24.444l5.812,36.219C832.172,443.744,840.785,447.555,849.398,451.342z M842.186,376.453l-1.479-2.363
		l-2.573-4.117l-20.121,28.916l59.295,33.764L842.186,376.453z M781.125,367.606l-13.787,27.714l21.793-11.218
		c0.518-5.772,1.391-12.181,2.861-21.993L781.125,367.606z M642.163,468.521l48.112-6.09l15.982-39.729
		C685.186,437.975,663.996,453.107,642.163,468.521z M565.088,478.351l-13.229,41.751l76.239,9.241l3.235-55.179
		C609.254,475.533,587.165,476.922,565.088,478.351z M487.706,468.684l17.785,45.797l41.914,5.081l13.141-41.471L487.706,468.684z
		 M429.206,500.806l12.285,35.526l59.563-21.142l-17.848-45.952L429.206,500.806z M409.001,604l29.619-3.969l21.424-53.438
		l-19.805-5.146l-34.736,12.328L409.001,604z M392.612,673.846l10.312-57.287c-11.943,17.923-23.939,35.529-36.201,53.369
		l12.299,35.01L392.612,673.846z M467.116,600.647l-58.272,7.81l-10.734,59.656C421.107,645.623,444.104,623.129,467.116,600.647z
		 M493.003,607.74l52.232-7.58l-41.058-41.059l-27.645,37.911L493.003,607.74z M606.701,612.469l-8.048-50.057l-43.265,38.004
		L606.701,612.469z M657.191,616.483c-9.33-26.959-18.682-53.911-28.036-80.866l-26.603,23.371l8.73,54.299L657.191,616.483z
		 M533.798,725.416l-51.399-38.721l23.26,34.883l21.842,26.723h16.474L533.798,725.416z M476.054,676.402l54.086,40.742
		l-13.291-30.361l-31.004-36.379C483.831,656.522,480.981,663.812,476.054,676.402z M718.339,629.619l71.448,32.047l-46.647-52.813
		L718.339,629.619z M820.086,720.484l-30.649-20.082l25.595,47.896h17.916L820.086,720.484z M784.801,692.102l31.791,20.826
		l-20.082-43.43l-70.796-31.754C745.422,655.85,765.121,673.967,784.801,692.102z M495.944,611.767l22.817,42.159l27.855-49.518
		L495.944,611.767z M516.521,659.029l-23.019-42.527c-2.834,14.717-4.115,21.818-6.129,28.918l29.146,34.199L516.521,659.029
		L516.521,659.029z M660.401,723.912l-15.082-23.242c-3.86,15.465-7.93,31.178-12.016,47.754l13.623,0.098L660.401,723.912z
		 M646.77,694.83l13.481,20.779l-5.153-56.531C652.521,671.082,649.714,682.906,646.77,694.83z M704.769,642.898l-42.784,43.301
		l2.723,29.854L704.769,642.898z M661.462,680.469l48.369-48.957l-47.66-9.971c-1.35,8.449-2.839,16.688-4.442,24.805l0.618-0.057
		L661.462,680.469z M853.674,452.627l25.158,5.184l2.565-17.771l-16.904-9.623L853.674,452.627z M873.356,461.168l-19.102-3.934
		l4.635,10.112L873.356,461.168z M702.948,420.467l-26.676-5.667l-33.621,48.019L702.948,420.467z M716.57,383.564l20.088,11.439
		c12.367-9.48,22.565-17.148,34.037-24.629L716.57,383.564z M732.875,397.912l-22.531-12.83l-0.447,0.107l-29.813,25.918
		l27.748,5.896C717.422,409.795,725.558,403.533,732.875,397.912z M742.616,396.135l18.462,1.871l12.295-24.713
		C763.038,381.022,752.808,388.621,742.616,396.135z M758.983,402.215l-21.646-2.193c-8.343,6.133-16.665,12.215-24.998,18.271
		l0.373,0.147l-16.27,40.438l50.443-32.348L758.983,402.215z M746.176,605.652l53.854,60.979
		c12.834,27.553,25.537,55.186,38.28,82.781l12.561,17.564v12.578h-33.234l-6.012-28.305l-29.947-56.043l-66.867-61.5l-49.39,90.189
		l0.018,0.166l-0.113,0.012l-14.622,26.699l8.226,16.609v12.393h-34.229c5.858-47.672,17.436-85.572,29.289-133.672l3.832-25.163
		c-54.265-3.778-50.524-3.81-105.979-16.834l-30.907,54.94v26.102l14.426,32.969l13.867,31.205l14.385,17.564v13.107h-34.188
		l-5.034-28.547c-22.642-27.822-32.189-42.213-53.459-74.031l12.34-31.53l6.793-34.817l-16.388-10.676l-77.104,75.367
		c-11.338,25.945-22.197,49.414-34.508,74.951l8.25,16.672v12.393H337.68c5.518-40.721,14.123-69.344,24.559-111.085l24.658-35.858
		l17.824-26.933l-3.369-48.379l-28.379,30.92l-30.779,55.673c-11.074,5.994-22.137,12.021-33.197,18.043
		c-22.58-12.25-45.203-24.438-67.807-36.658l69.865-17.404l44.164-58.496l69.553-51.216l0.053-0.12
		c19.686-11.484,39.338-23.025,59.025-34.508l79.644,10.287l68.995-4.359l41.187-58.826l34.143-29.684l71.14-17.334l0.279,1.154
		c4.17-2.539,8.582-5.104,13.37-7.752v-37.287c19.531,15.644,33.029,25.584,46.426,43.949l0.262,0.143l-0.064,0.123l0.592,0.822
		l0.282-0.178l45.981,73.576l-3.398,23.58l-26,11.105l-7.879-17.189l-27.865-12.217l-16.43-2.605l-22.24,39.829l-18.48,51.921v48.34
		L746.176,605.652z"/>
</g>
</svg>
